<svg xmlns="http://www.w3.org/2000/svg" viewBox="0 0 1440 320"><path fill="#4731d2" fill-opacity="1" d="M0,128L24,138.7C48,149,96,171,144,170.7C192,171,240,149,288,160C336,171,384,213,432,218.7C480,224,528,192,576,165.3C624,139,672,117,720,96C768,75,816,53,864,80C912,107,960,181,1008,208C1056,235,1104,213,1152,186.7C1200,160,1248,128,1296,96C1344,64,1392,32,1416,16L1440,0L1440,320L1416,320C1392,320,1344,320,1296,320C1248,320,1200,320,1152,320C1104,320,1056,320,1008,320C960,320,912,320,864,320C816,320,768,320,720,320C672,320,624,320,576,320C528,320,480,320,432,320C384,320,336,320,288,320C240,320,192,320,144,320C96,320,48,320,24,320L0,320Z"></path></svg>